# xmcd
# 
# Track frame offsets:
#     150
#     30426
#     63159
#     98313
#     121449
#     169913
#     206389
#     248270
#     298635
# 
# Disc length: 4448
# 
# Revision: 4
# Processed by: cddbd v1.5.2PL0 Copyright (c) Steve Scherf et al.
# Submitted via: fre:ac v1.0.27
# 
DISCID=69115e09
DTITLE=Gallagher, Rory - Irish Tour '74
DYEAR=1974
DGENRE=Rock
TTITLE0=Messin' With The Kid
TTITLE1=Cradle Rock
TTITLE2=I Wonder Who
TTITLE3=Tattoo'd Lady
TTITLE4=Walk On Hot Coals
TTITLE5=Laundromat
TTITLE6=A Million Miles Away
TTITLE7=Hands Off
TTITLE8=Too Much Alcohol
EXTD=
EXTT0=
EXTT1=
EXTT2=
EXTT3=
EXTT4=
EXTT5=
EXTT6=
EXTT7=
EXTT8=
PLAYORDER=
